<mxfile host="app.diagrams.net" modified="2022-02-17T15:29:43.321Z" agent="5.0 (Windows NT 10.0; Win64; x64) AppleWebKit/537.36 (KHTML, like Gecko) Chrome/98.0.4758.102 Safari/537.36" etag="2ROUNO3unk_5EjfL2ycH" version="16.5.6" type="github">
  <diagram id="prtHgNgQTEPvFCAcTncT" name="Page-1">
    <mxGraphModel dx="1221" dy="644" grid="1" gridSize="10" guides="1" tooltips="1" connect="1" arrows="1" fold="1" page="1" pageScale="1" pageWidth="827" pageHeight="1169" math="0" shadow="0">
      <root>
        <mxCell id="0" />
        <mxCell id="1" parent="0" />
        <mxCell id="LcdX-4mPrk4NQtn-vN0U-13" style="rounded=0;orthogonalLoop=1;jettySize=auto;html=1;entryX=0.811;entryY=-0.167;entryDx=0;entryDy=0;entryPerimeter=0;fontSize=12;" edge="1" parent="1" source="LcdX-4mPrk4NQtn-vN0U-1" target="LcdX-4mPrk4NQtn-vN0U-2">
          <mxGeometry relative="1" as="geometry" />
        </mxCell>
        <mxCell id="LcdX-4mPrk4NQtn-vN0U-14" style="rounded=0;orthogonalLoop=1;jettySize=auto;html=1;fontSize=12;" edge="1" parent="1" source="LcdX-4mPrk4NQtn-vN0U-1" target="LcdX-4mPrk4NQtn-vN0U-3">
          <mxGeometry relative="1" as="geometry" />
        </mxCell>
        <mxCell id="LcdX-4mPrk4NQtn-vN0U-15" style="edgeStyle=none;rounded=0;orthogonalLoop=1;jettySize=auto;html=1;entryX=0.5;entryY=0;entryDx=0;entryDy=0;fontSize=12;" edge="1" parent="1" source="LcdX-4mPrk4NQtn-vN0U-1" target="LcdX-4mPrk4NQtn-vN0U-4">
          <mxGeometry relative="1" as="geometry" />
        </mxCell>
        <mxCell id="LcdX-4mPrk4NQtn-vN0U-16" style="edgeStyle=none;rounded=0;orthogonalLoop=1;jettySize=auto;html=1;entryX=0.5;entryY=0;entryDx=0;entryDy=0;fontSize=12;" edge="1" parent="1" source="LcdX-4mPrk4NQtn-vN0U-1" target="LcdX-4mPrk4NQtn-vN0U-5">
          <mxGeometry relative="1" as="geometry" />
        </mxCell>
        <mxCell id="LcdX-4mPrk4NQtn-vN0U-17" style="edgeStyle=none;rounded=0;orthogonalLoop=1;jettySize=auto;html=1;entryX=0.5;entryY=0;entryDx=0;entryDy=0;fontSize=12;" edge="1" parent="1" source="LcdX-4mPrk4NQtn-vN0U-1" target="LcdX-4mPrk4NQtn-vN0U-6">
          <mxGeometry relative="1" as="geometry" />
        </mxCell>
        <mxCell id="LcdX-4mPrk4NQtn-vN0U-18" style="edgeStyle=none;rounded=0;orthogonalLoop=1;jettySize=auto;html=1;entryX=0.5;entryY=0;entryDx=0;entryDy=0;fontSize=12;" edge="1" parent="1" source="LcdX-4mPrk4NQtn-vN0U-1" target="LcdX-4mPrk4NQtn-vN0U-8">
          <mxGeometry relative="1" as="geometry" />
        </mxCell>
        <mxCell id="LcdX-4mPrk4NQtn-vN0U-19" style="edgeStyle=none;rounded=0;orthogonalLoop=1;jettySize=auto;html=1;entryX=0.5;entryY=0;entryDx=0;entryDy=0;fontSize=12;" edge="1" parent="1" source="LcdX-4mPrk4NQtn-vN0U-1" target="LcdX-4mPrk4NQtn-vN0U-9">
          <mxGeometry relative="1" as="geometry" />
        </mxCell>
        <mxCell id="LcdX-4mPrk4NQtn-vN0U-20" style="edgeStyle=none;rounded=0;orthogonalLoop=1;jettySize=auto;html=1;entryX=0.5;entryY=0;entryDx=0;entryDy=0;fontSize=12;" edge="1" parent="1" source="LcdX-4mPrk4NQtn-vN0U-1" target="LcdX-4mPrk4NQtn-vN0U-10">
          <mxGeometry relative="1" as="geometry" />
        </mxCell>
        <mxCell id="LcdX-4mPrk4NQtn-vN0U-1" value="&lt;font style=&quot;font-size: 18px&quot;&gt;大学生信息&lt;br&gt;服务社区&lt;/font&gt;" style="rounded=0;whiteSpace=wrap;html=1;" vertex="1" parent="1">
          <mxGeometry x="570" y="385" width="140" height="70" as="geometry" />
        </mxCell>
        <mxCell id="LcdX-4mPrk4NQtn-vN0U-2" value="&lt;p class=&quot;MsoNormal&quot; style=&quot;font-size: 12px;&quot;&gt;&lt;font style=&quot;font-size: 12px;&quot;&gt;注册、登录&lt;/font&gt;&lt;/p&gt;&lt;p class=&quot;MsoNormal&quot; style=&quot;font-size: 12px;&quot;&gt;&lt;font style=&quot;font-size: 12px;&quot;&gt;及个人信息管理&lt;/font&gt;&lt;/p&gt;" style="rounded=0;whiteSpace=wrap;html=1;fontSize=12;" vertex="1" parent="1">
          <mxGeometry x="130" y="535" width="100" height="50" as="geometry" />
        </mxCell>
        <mxCell id="LcdX-4mPrk4NQtn-vN0U-3" value="&lt;span style=&quot;font-size: 12px;&quot;&gt;好友管理&lt;/span&gt;" style="rounded=0;whiteSpace=wrap;html=1;fontSize=12;" vertex="1" parent="1">
          <mxGeometry x="250" y="535" width="100" height="50" as="geometry" />
        </mxCell>
        <mxCell id="LcdX-4mPrk4NQtn-vN0U-4" value="&lt;span style=&quot;font-size: 12px;&quot;&gt;我的空间管理&lt;/span&gt;" style="rounded=0;whiteSpace=wrap;html=1;fontSize=12;" vertex="1" parent="1">
          <mxGeometry x="370" y="535" width="100" height="50" as="geometry" />
        </mxCell>
        <mxCell id="LcdX-4mPrk4NQtn-vN0U-5" value="&lt;span style=&quot;font-size: 12px;&quot;&gt;我的打卡计划管理&lt;/span&gt;" style="rounded=0;whiteSpace=wrap;html=1;fontSize=12;" vertex="1" parent="1">
          <mxGeometry x="490" y="535" width="100" height="50" as="geometry" />
        </mxCell>
        <mxCell id="LcdX-4mPrk4NQtn-vN0U-6" value="&lt;span style=&quot;font-size: 12px;&quot;&gt;内推信息管理&lt;/span&gt;" style="rounded=0;whiteSpace=wrap;html=1;fontSize=12;" vertex="1" parent="1">
          <mxGeometry x="610" y="535" width="100" height="50" as="geometry" />
        </mxCell>
        <mxCell id="LcdX-4mPrk4NQtn-vN0U-8" value="&lt;span style=&quot;font-size: 12px;&quot;&gt;招聘信息管理&lt;/span&gt;" style="rounded=0;whiteSpace=wrap;html=1;fontSize=12;" vertex="1" parent="1">
          <mxGeometry x="730" y="535" width="100" height="50" as="geometry" />
        </mxCell>
        <mxCell id="LcdX-4mPrk4NQtn-vN0U-9" value="&lt;span style=&quot;font-size: 12px;&quot;&gt;举报管理模块&lt;/span&gt;" style="rounded=0;whiteSpace=wrap;html=1;fontSize=12;" vertex="1" parent="1">
          <mxGeometry x="850" y="535" width="100" height="50" as="geometry" />
        </mxCell>
        <mxCell id="LcdX-4mPrk4NQtn-vN0U-10" value="&lt;span style=&quot;font-size: 12px;&quot;&gt;用户管理&lt;/span&gt;" style="rounded=0;whiteSpace=wrap;html=1;fontSize=12;" vertex="1" parent="1">
          <mxGeometry x="970" y="535" width="100" height="50" as="geometry" />
        </mxCell>
      </root>
    </mxGraphModel>
  </diagram>
</mxfile>
